# xmcd
#
# Track frame offsets:
#	150
#	20163
#	41170
#	56075
#
# Disc length: 987 seconds
#
# Revision: 1
# Processed by: cddbd v1.5.2PL0 Copyright (c) Steve Scherf et al.
# Submitted via: audiograbber 1.83.01
#
DISCID=3503d904
DTITLE=Paula Fernandes - Um Ser AmorUm Ser Amor
DYEAR=1900
DGENRE=
TTITLE0=Um Ser Amor
TTITLE1=Alem da Vida
TTITLE2=Ceu Vermelho
TTITLE3=Apenas Flor
EXTD=
EXTT0=
EXTT1=
EXTT2=
EXTT3=
PLAYORDER=
